HIERARCHY
ROOT Hips
{
	OFFSET 0.00000 0.00000 0.00000
	CHANNELS 6 Xposition Yposition Zposition Zrotation Yrotation Xrotation 
	JOINT LHipJoint
	{
		OFFSET 0 0 0
		CHANNELS 3 Zrotation Yrotation Xrotation
		JOINT LeftUpLeg
		{
			OFFSET 1.58895 -1.83665 0.71753
			CHANNELS 3 Zrotation Yrotation Xrotation
			JOINT LeftLeg
			{
				OFFSET 2.50528 -6.88321 0.00000
				CHANNELS 3 Zrotation Yrotation Xrotation
				JOINT LeftFoot
				{
					OFFSET 2.63244 -7.23257 0.00000
					CHANNELS 3 Zrotation Yrotation Xrotation
					JOINT LeftToeBase
					{
						OFFSET 0.23691 -0.65090 1.72750
						CHANNELS 3 Zrotation Yrotation Xrotation
						End Site
						{
							OFFSET 0.00000 -0.00000 0.92561
						}
					}
				}
			}
		}
	}
	JOINT RHipJoint
	{
		OFFSET 0 0 0
		CHANNELS 3 Zrotation Yrotation Xrotation
		JOINT RightUpLeg
		{
			OFFSET -1.51435 -1.83665 0.71753
			CHANNELS 3 Zrotation Yrotation Xrotation
			JOINT RightLeg
			{
				OFFSET -2.54551 -6.99375 0.00000
				CHANNELS 3 Zrotation Yrotation Xrotation
				JOINT RightFoot
				{
					OFFSET -2.66027 -7.30903 0.00000
					CHANNELS 3 Zrotation Yrotation Xrotation
					JOINT RightToeBase
					{
						OFFSET -0.22981 -0.63138 2.03959
						CHANNELS 3 Zrotation Yrotation Xrotation
						End Site
						{
							OFFSET -0.00000 -0.00000 1.07060
						}
					}
				}
			}
		}
	}
	JOINT LowerBack
	{
		OFFSET 0 0 0
		CHANNELS 3 Zrotation Yrotation Xrotation
		JOINT Spine
		{
			OFFSET -0.02651 1.86275 -0.11152
			CHANNELS 3 Zrotation Yrotation Xrotation
			JOINT Spine1
			{
				OFFSET 0.01019 1.86224 0.04087
				CHANNELS 3 Zrotation Yrotation Xrotation
				JOINT Neck
				{
					OFFSET 0 0 0
					CHANNELS 3 Zrotation Yrotation Xrotation
					JOINT Neck1
					{
						OFFSET -0.01926 1.80512 0.08867
						CHANNELS 3 Zrotation Yrotation Xrotation
						JOINT Head
						{
							OFFSET 0.05516 1.76451 -0.38475
							CHANNELS 3 Zrotation Yrotation Xrotation
							End Site
							{
								OFFSET 0.01592 1.82587 -0.14001
							}
						}
					}
				}
				JOINT LeftShoulder
				{
					OFFSET 0 0 0
					CHANNELS 3 Zrotation Yrotation Xrotation
					JOINT LeftArm
					{
						OFFSET 3.47116 1.51376 0.14491
						CHANNELS 3 Zrotation Yrotation Xrotation
						JOINT LeftForeArm
						{
							OFFSET 4.78095 -0.00000 0.00000
							CHANNELS 3 Zrotation Yrotation Xrotation
							JOINT LeftHand
							{
								OFFSET 3.58615 -0.00000 -0.00000
								CHANNELS 3 Zrotation Yrotation Xrotation
								JOINT LeftFingerBase
								{
									OFFSET 0 0 0
									CHANNELS 3 Zrotation Yrotation Xrotation
									JOINT LeftHandIndex1
									{
										OFFSET 0.65981 -0.00000 0.00000
										CHANNELS 3 Zrotation Yrotation Xrotation
										End Site
										{
											OFFSET 0.53196 -0.00000 0.00000
										}
									}
								}
								JOINT LThumb
								{
									OFFSET 0 0 0
									CHANNELS 3 Zrotation Yrotation Xrotation
									End Site
									{
										OFFSET 0.54008 -0.00000 0.54008
									}
								}
							}
						}
					}
				}
				JOINT RightShoulder
				{
					OFFSET 0 0 0
					CHANNELS 3 Zrotation Yrotation Xrotation
					JOINT RightArm
					{
						OFFSET -3.31725 1.61216 0.35156
						CHANNELS 3 Zrotation Yrotation Xrotation
						JOINT RightForeArm
						{
							OFFSET -4.48913 -0.00000 0.00000
							CHANNELS 3 Zrotation Yrotation Xrotation
							JOINT RightHand
							{
								OFFSET -3.70510 -0.00000 0.00000
								CHANNELS 3 Zrotation Yrotation Xrotation
								JOINT RightFingerBase
								{
									OFFSET 0 0 0
									CHANNELS 3 Zrotation Yrotation Xrotation
									JOINT RightHandIndex1
									{
										OFFSET -0.44914 -0.00000 0.00000
										CHANNELS 3 Zrotation Yrotation Xrotation
										End Site
										{
											OFFSET -0.36211 -0.00000 0.00000
										}
									}
								}
								JOINT RThumb
								{
									OFFSET 0 0 0
									CHANNELS 3 Zrotation Yrotation Xrotation
									End Site
									{
										OFFSET -0.36763 -0.00000 0.36763
									}
								}
							}
						}
					}
				}
			}
		}
	}
}
MOTION
Frames: 9
Frame Time: .0083333
-0.7287 18.9976 5.0231 0.3669 0.3960 15.3489 0.0000 0.0000 0.0000 -11.0915 -12.1509 -18.5893 1.0287 6.4516 18.1005 0.5699 7.5256 -18.9484 8.1691 -16.2423 -53.1697 0.0000 0.0000 0.0000 12.4621 4.1591 -10.2314 0.0000 0.0000 -0.0000 -0.3328 -8.6075 -17.2444 -0.0015 -0.2500 0.6869 0.4115 -0.3753 28.4001 2.6156 0.0380 1.5942 2.7864 0.1075 -14.0714 -4.6825 -2.5301 -24.2607 2.0454 -2.2490 12.5439 1.1347 -1.0907 7.8775 0.0000 -0.0000 0.0000 35.2480 -64.4668 -62.6162 15.3186 -24.5881 -3.3574 -0.0000 -0.0000 49.1676 -2.5177 -13.8190 0.6017 -7.1250 0.0000 -0.0000 -20.2214 16.6236 14.5337 0.0000 -0.0000 0.0000 -34.4617 57.8189 -44.7363 -20.3801 31.0975 -5.7264 0.0000 0.0000 42.0645 -16.6290 -47.1481 12.3503 7.1250 -0.0000 -0.0000 43.3670 -74.7432 -31.7556
-0.7313 18.9980 5.0453 0.3397 0.3558 15.4148 0.0000 0.0000 0.0000 -11.0312 -12.3533 -18.4709 1.0255 6.4418 18.0718 0.5815 7.6700 -19.1951 8.1293 -16.2135 -53.0270 0.0000 0.0000 0.0000 12.4933 4.2000 -10.2245 0.0000 -0.0000 0.0000 -0.3377 -8.5883 -17.2855 -0.0011 -0.2135 0.5865 0.3814 -0.3957 28.2410 2.6395 0.0049 1.4853 2.8443 0.0969 -14.1140 -4.7701 -2.4904 -24.1610 2.0941 -2.1808 12.5411 1.1750 -1.0581 7.8599 0.0000 0.0000 0.0000 32.5916 -63.1431 -59.8245 15.3128 -24.5801 -3.3550 -0.0000 -0.0000 49.2557 -2.8289 -13.9140 0.6808 -7.1250 0.0000 -0.0000 -20.4118 16.5385 14.7314 0.0000 0.0000 0.0000 -33.1784 56.5808 -43.2169 -20.3136 31.0184 -5.6921 0.0000 0.0000 41.8923 -16.5755 -46.9651 12.2741 7.1250 -0.0000 -0.0000 42.8855 -74.6057 -31.2593
-0.7348 18.9976 5.0667 0.3759 0.3122 15.4404 0.0000 0.0000 0.0000 -11.0631 -12.4503 -18.3459 1.0216 6.4301 18.0376 0.5907 7.7410 -19.3535 8.1133 -16.2020 -52.9698 0.0000 0.0000 0.0000 12.4566 4.2153 -10.1773 0.0000 -0.0000 0.0000 -0.3461 -8.5424 -17.3411 -0.0010 -0.2026 0.5566 0.5308 -0.3387 27.9520 2.4582 0.0882 1.6652 2.5026 0.1112 -13.7466 -4.4104 -2.5798 -25.1895 2.0157 -2.3572 12.8405 1.0607 -1.1273 8.1269 0.0000 -0.0000 0.0000 31.9500 -61.9531 -59.2646 15.2084 -24.4356 -3.3117 -0.0000 -0.0000 49.6731 -3.2472 -14.0770 0.7906 -7.1250 0.0000 -0.0000 -20.6626 16.3905 15.0114 0.0000 -0.0000 0.0000 -32.0061 54.9072 -42.6802 -20.1408 30.8115 -5.6033 0.0000 0.0000 42.0994 -16.4634 -46.5001 12.0990 7.1250 -0.0000 -0.0000 41.6803 -74.2599 -30.0276
-0.7392 18.9968 5.0869 0.4081 0.2675 15.4609 0.0000 0.0000 0.0000 -11.1144 -12.3520 -18.2998 1.0179 6.4187 18.0042 0.5921 7.7137 -19.3446 8.1323 -16.2157 -53.0380 0.0000 0.0000 0.0000 12.4284 4.2350 -10.1304 0.0000 -0.0000 0.0000 -0.3496 -8.4954 -17.3364 -0.0015 -0.2491 0.6845 0.5685 -0.2896 27.7126 2.3727 0.1435 1.7590 2.3533 0.1273 -13.5081 -4.2170 -2.6340 -25.7492 1.9227 -2.4540 13.0273 0.9808 -1.1707 8.2794 -0.0000 -0.0000 0.0000 30.7665 -60.8007 -58.5010 15.0765 -24.2525 -3.2573 -0.0000 -0.0000 50.1777 -3.2875 -14.1043 0.8020 -7.1250 0.0000 -0.0000 -20.6854 16.3653 15.0427 -0.0000 -0.0000 0.0000 -30.8056 53.3536 -41.8104 -20.0283 30.6764 -5.5458 0.0000 0.0000 42.2826 -15.8646 -46.6297 11.6723 7.1250 -0.0000 -0.0000 42.6356 -74.1209 -30.6563
-0.7429 18.9960 5.1064 0.3950 0.2067 15.4466 0.0000 0.0000 0.0000 -11.1305 -12.2025 -18.2442 1.0160 6.4127 17.9868 0.5945 7.6599 -19.3239 8.1318 -16.2153 -53.0359 0.0000 0.0000 0.0000 12.4444 4.2760 -10.0476 0.0000 -0.0000 0.0000 -0.3543 -8.4382 -17.3356 -0.0022 -0.2998 0.8237 0.5678 -0.2551 27.5718 2.3588 0.1832 1.7478 2.3202 0.1441 -13.4469 -4.2316 -2.6623 -25.8163 1.9061 -2.4814 13.1093 0.9729 -1.1862 8.3191 0.0000 -0.0000 0.0000 28.9082 -59.6516 -57.1469 14.9845 -24.1245 -3.2196 -0.0000 -0.0000 50.7141 -2.7205 -14.1505 0.6655 -7.1250 0.0000 -0.0000 -20.3158 16.3150 14.7585 0.0000 -0.0000 0.0000 -29.4589 51.8573 -40.3888 -20.0182 30.6642 -5.5406 0.0000 0.0000 42.3944 -15.2961 -46.9413 11.3006 7.1250 -0.0000 -0.0000 44.0593 -74.1090 -31.7610
-0.7447 18.9960 5.1264 0.3761 0.1819 15.3935 0.0000 0.0000 0.0000 -11.1321 -12.1731 -18.1139 1.0158 6.4123 17.9856 0.6014 7.6351 -19.3751 8.1194 -16.2064 -52.9917 0.0000 0.0000 0.0000 12.4781 4.2716 -9.9214 0.0000 -0.0000 0.0000 -0.3586 -8.4072 -17.3563 -0.0010 -0.2013 0.5532 0.6007 -0.2672 27.4784 2.3297 0.1723 1.7136 2.2708 0.1359 -13.4361 -4.1931 -2.6411 -25.7650 1.8653 -2.4616 13.1994 0.9559 -1.1800 8.3402 0.0000 -0.0000 0.0000 26.8036 -58.3642 -55.2003 14.9785 -24.1162 -3.2172 -0.0000 -0.0000 51.1506 -2.3406 -14.3175 0.5791 -7.1250 0.0000 -0.0000 -20.0532 16.1525 14.6168 0.0000 -0.0000 0.0000 -28.1182 50.3835 -38.7975 -19.9998 30.6421 -5.5312 0.0000 0.0000 42.3345 -15.0573 -47.0116 11.1328 7.1250 -0.0000 -0.0000 44.4857 -74.0643 -32.0576
-0.7463 18.9959 5.1475 0.3585 0.1980 15.3726 0.0000 0.0000 0.0000 -11.1190 -12.2115 -17.9916 1.0154 6.4111 17.9819 0.6104 7.6291 -19.4640 8.1160 -16.2039 -52.9796 0.0000 0.0000 0.0000 12.5274 4.2354 -9.8302 0.0000 -0.0000 0.0000 -0.3591 -8.4109 -17.3666 -0.0000 -0.0018 0.0049 0.7028 -0.2928 27.3425 2.2702 0.1604 1.6513 2.1464 0.1221 -13.4352 -4.0573 -2.6004 -25.6418 1.7700 -2.4424 13.3354 0.9051 -1.1756 8.3636 -0.0000 -0.0000 0.0000 24.7995 -57.0610 -52.9752 14.9888 -24.1305 -3.2214 -0.0000 -0.0000 51.1487 -2.1392 -14.5690 0.5383 -7.1250 0.0000 -0.0000 -19.8972 15.9126 14.5983 -0.0000 -0.0000 0.0000 -26.7006 48.8489 -37.0074 -19.9652 30.6004 -5.5136 0.0000 0.0000 42.0949 -14.7770 -47.1481 10.9449 7.1250 -0.0000 -0.0000 45.1369 -74.0452 -32.5544
-0.7492 18.9950 5.1703 0.3768 0.1530 15.3551 0.0000 0.0000 0.0000 -11.1595 -12.2195 -17.8504 1.0137 6.4058 17.9665 0.6213 7.6643 -19.6069 8.1087 -16.1986 -52.9532 0.0000 0.0000 0.0000 12.5268 4.2470 -9.7279 0.0000 0.0000 -0.0000 -0.3632 -8.3846 -17.3896 -0.0003 0.1191 -0.3272 0.7503 -0.2627 27.1838 2.2019 0.2027 1.5694 2.0233 0.1356 -13.4467 -3.9469 -2.5778 -25.3661 1.6552 -2.4411 13.4237 0.8502 -1.1836 8.3467 0.0000 -0.0000 0.0000 22.8466 -55.8096 -50.7981 14.9423 -24.0656 -3.2024 -0.0000 -0.0000 50.8546 -2.0513 -14.9547 0.5296 -7.1250 0.0000 -0.0000 -19.8015 15.5479 14.6859 0.0000 -0.0000 0.0000 -25.1676 47.3436 -35.3271 -19.9398 30.5697 -5.5007 0.0000 0.0000 42.1096 -14.4853 -47.2225 10.7372 7.1250 -0.0000 -0.0000 45.6208 -73.9825 -32.8814
-0.7504 18.9939 5.1941 0.4334 0.0589 15.3126 0.0000 0.0000 0.0000 -11.2586 -12.2607 -17.6633 1.0127 6.4028 17.9576 0.6292 7.7741 -19.7813 8.1152 -16.2033 -52.9764 0.0000 0.0000 0.0000 12.4642 4.2843 -9.5889 0.0000 -0.0000 0.0000 -0.3642 -8.3661 -17.3836 -0.0013 0.2336 -0.6419 0.7035 -0.2262 27.0042 2.1564 0.2267 1.5130 1.9872 0.1474 -13.4163 -3.8665 -2.5301 -25.0033 1.5134 -2.3923 13.3871 0.7985 -1.1737 8.2714 -0.0000 -0.0000 0.0000 20.9277 -54.5204 -49.0243 14.8529 -23.9409 -3.1660 -0.0000 -0.0000 51.1007 -3.4202 -15.2046 0.8980 -7.1250 0.0000 -0.0000 -20.6488 15.3355 15.5093 -0.0000 -0.0000 0.0000 -23.7536 45.9882 -34.0104 -19.9138 30.5384 -5.4875 0.0000 0.0000 42.3921 -14.3840 -47.0939 10.6389 7.1250 -0.0000 -0.0000 45.3537 -73.8650 -32.5664
